<mxfile host="Electron" modified="2024-05-07T11:45:31.157Z" agent="Mozilla/5.0 (Windows NT 10.0; Win64; x64) AppleWebKit/537.36 (KHTML, like Gecko) draw.io/24.2.5 Chrome/120.0.6099.109 Electron/28.1.0 Safari/537.36" etag="OV3nSfjCnBEuxA_EFwsw" version="24.2.5" type="device">
  <diagram id="R2lEEEUBdFMjLlhIrx00" name="Page-1">
    <mxGraphModel dx="1938" dy="605" grid="1" gridSize="10" guides="1" tooltips="1" connect="1" arrows="1" fold="1" page="1" pageScale="1" pageWidth="850" pageHeight="1100" math="0" shadow="0" extFonts="Permanent Marker^https://fonts.googleapis.com/css?family=Permanent+Marker">
      <root>
        <mxCell id="0" />
        <mxCell id="1" parent="0" />
        <mxCell id="xF_-Twi31pI02IYK8cKR-40" style="edgeStyle=none;rounded=0;orthogonalLoop=1;jettySize=auto;html=1;strokeColor=default;align=center;verticalAlign=middle;fontFamily=Helvetica;fontSize=11;fontColor=default;labelBackgroundColor=default;endArrow=none;endFill=0;" parent="1" source="xF_-Twi31pI02IYK8cKR-2" target="xF_-Twi31pI02IYK8cKR-30" edge="1">
          <mxGeometry relative="1" as="geometry" />
        </mxCell>
        <mxCell id="xF_-Twi31pI02IYK8cKR-41" style="edgeStyle=none;rounded=0;orthogonalLoop=1;jettySize=auto;html=1;entryX=1.002;entryY=0.596;entryDx=0;entryDy=0;strokeColor=default;align=center;verticalAlign=middle;fontFamily=Helvetica;fontSize=11;fontColor=default;labelBackgroundColor=default;endArrow=none;endFill=0;entryPerimeter=0;" parent="1" source="xF_-Twi31pI02IYK8cKR-2" target="xF_-Twi31pI02IYK8cKR-32" edge="1">
          <mxGeometry relative="1" as="geometry" />
        </mxCell>
        <mxCell id="xF_-Twi31pI02IYK8cKR-56" style="edgeStyle=none;rounded=0;orthogonalLoop=1;jettySize=auto;html=1;entryX=1;entryY=0;entryDx=0;entryDy=0;strokeColor=default;align=center;verticalAlign=middle;fontFamily=Helvetica;fontSize=11;fontColor=default;labelBackgroundColor=default;endArrow=none;endFill=0;" parent="1" source="xF_-Twi31pI02IYK8cKR-2" target="xF_-Twi31pI02IYK8cKR-55" edge="1">
          <mxGeometry relative="1" as="geometry" />
        </mxCell>
        <mxCell id="6BEpY7dFE5jVvSf7-Emo-18" style="edgeStyle=none;rounded=0;orthogonalLoop=1;jettySize=auto;html=1;entryX=0;entryY=1;entryDx=0;entryDy=0;strokeColor=default;align=center;verticalAlign=middle;fontFamily=Helvetica;fontSize=11;fontColor=default;labelBackgroundColor=default;endArrow=none;endFill=0;" edge="1" parent="1" source="xF_-Twi31pI02IYK8cKR-2" target="6BEpY7dFE5jVvSf7-Emo-17">
          <mxGeometry relative="1" as="geometry" />
        </mxCell>
        <mxCell id="6BEpY7dFE5jVvSf7-Emo-23" value="1" style="edgeLabel;html=1;align=center;verticalAlign=middle;resizable=0;points=[];fontSize=12;fontFamily=Helvetica;fontColor=default;labelBackgroundColor=default;" vertex="1" connectable="0" parent="6BEpY7dFE5jVvSf7-Emo-18">
          <mxGeometry x="0.8792" y="-1" relative="1" as="geometry">
            <mxPoint x="-3" y="4" as="offset" />
          </mxGeometry>
        </mxCell>
        <mxCell id="xF_-Twi31pI02IYK8cKR-2" value="Movie" style="whiteSpace=wrap;html=1;align=center;" parent="1" vertex="1">
          <mxGeometry x="70" y="410" width="100" height="40" as="geometry" />
        </mxCell>
        <mxCell id="xF_-Twi31pI02IYK8cKR-17" style="rounded=0;orthogonalLoop=1;jettySize=auto;html=1;entryX=0.5;entryY=1;entryDx=0;entryDy=0;strokeColor=default;align=center;verticalAlign=middle;fontFamily=Helvetica;fontSize=11;fontColor=default;labelBackgroundColor=default;edgeStyle=none;endArrow=none;endFill=0;" parent="1" source="xF_-Twi31pI02IYK8cKR-3" target="xF_-Twi31pI02IYK8cKR-10" edge="1">
          <mxGeometry relative="1" as="geometry" />
        </mxCell>
        <mxCell id="xF_-Twi31pI02IYK8cKR-20" style="edgeStyle=none;rounded=0;orthogonalLoop=1;jettySize=auto;html=1;strokeColor=default;align=center;verticalAlign=middle;fontFamily=Helvetica;fontSize=11;fontColor=default;labelBackgroundColor=default;endArrow=none;endFill=0;" parent="1" source="xF_-Twi31pI02IYK8cKR-3" target="xF_-Twi31pI02IYK8cKR-21" edge="1">
          <mxGeometry relative="1" as="geometry">
            <mxPoint x="810" y="520.0000000000001" as="targetPoint" />
          </mxGeometry>
        </mxCell>
        <mxCell id="6BEpY7dFE5jVvSf7-Emo-21" style="edgeStyle=none;rounded=0;orthogonalLoop=1;jettySize=auto;html=1;strokeColor=default;align=center;verticalAlign=middle;fontFamily=Helvetica;fontSize=11;fontColor=default;labelBackgroundColor=default;endArrow=none;endFill=0;" edge="1" parent="1" source="xF_-Twi31pI02IYK8cKR-3" target="6BEpY7dFE5jVvSf7-Emo-20">
          <mxGeometry relative="1" as="geometry" />
        </mxCell>
        <mxCell id="6BEpY7dFE5jVvSf7-Emo-25" value="1" style="edgeLabel;html=1;align=center;verticalAlign=middle;resizable=0;points=[];fontSize=12;fontFamily=Helvetica;fontColor=default;labelBackgroundColor=default;" vertex="1" connectable="0" parent="6BEpY7dFE5jVvSf7-Emo-21">
          <mxGeometry x="0.8239" y="1" relative="1" as="geometry">
            <mxPoint as="offset" />
          </mxGeometry>
        </mxCell>
        <mxCell id="xF_-Twi31pI02IYK8cKR-3" value="&amp;nbsp;Member" style="whiteSpace=wrap;html=1;align=center;" parent="1" vertex="1">
          <mxGeometry x="690" y="404" width="100" height="40" as="geometry" />
        </mxCell>
        <mxCell id="xF_-Twi31pI02IYK8cKR-10" value="&lt;u&gt;Member Id&lt;/u&gt;" style="ellipse;whiteSpace=wrap;html=1;align=center;" parent="1" vertex="1">
          <mxGeometry x="800" y="470" width="100" height="40" as="geometry" />
        </mxCell>
        <mxCell id="h5olAEMSu2brqqZlzXby-23" style="edgeStyle=none;rounded=0;orthogonalLoop=1;jettySize=auto;html=1;entryX=0.346;entryY=0.991;entryDx=0;entryDy=0;strokeColor=default;align=center;verticalAlign=middle;fontFamily=Helvetica;fontSize=11;fontColor=default;labelBackgroundColor=default;endArrow=none;endFill=0;entryPerimeter=0;" parent="1" source="xF_-Twi31pI02IYK8cKR-12" target="h5olAEMSu2brqqZlzXby-28" edge="1">
          <mxGeometry relative="1" as="geometry" />
        </mxCell>
        <mxCell id="h5olAEMSu2brqqZlzXby-34" value="M" style="edgeLabel;html=1;align=center;verticalAlign=middle;resizable=0;points=[];fontFamily=Helvetica;fontSize=11;fontColor=default;labelBackgroundColor=default;" parent="h5olAEMSu2brqqZlzXby-23" vertex="1" connectable="0">
          <mxGeometry x="-0.7758" y="1" relative="1" as="geometry">
            <mxPoint as="offset" />
          </mxGeometry>
        </mxCell>
        <mxCell id="h5olAEMSu2brqqZlzXby-38" style="edgeStyle=none;rounded=0;orthogonalLoop=1;jettySize=auto;html=1;entryX=0.5;entryY=1;entryDx=0;entryDy=0;strokeColor=default;align=center;verticalAlign=middle;fontFamily=Helvetica;fontSize=11;fontColor=default;labelBackgroundColor=default;endArrow=none;endFill=0;" parent="1" source="xF_-Twi31pI02IYK8cKR-12" target="h5olAEMSu2brqqZlzXby-37" edge="1">
          <mxGeometry relative="1" as="geometry" />
        </mxCell>
        <mxCell id="6BEpY7dFE5jVvSf7-Emo-7" style="edgeStyle=none;rounded=0;orthogonalLoop=1;jettySize=auto;html=1;entryX=0.5;entryY=0;entryDx=0;entryDy=0;strokeColor=default;align=center;verticalAlign=middle;fontFamily=Helvetica;fontSize=11;fontColor=default;labelBackgroundColor=default;endArrow=none;endFill=0;" edge="1" parent="1" source="xF_-Twi31pI02IYK8cKR-12" target="6BEpY7dFE5jVvSf7-Emo-6">
          <mxGeometry relative="1" as="geometry" />
        </mxCell>
        <mxCell id="xF_-Twi31pI02IYK8cKR-12" value="Rents" style="shape=rhombus;perimeter=rhombusPerimeter;whiteSpace=wrap;html=1;align=center;" parent="1" vertex="1">
          <mxGeometry x="240" y="400" width="120" height="60" as="geometry" />
        </mxCell>
        <mxCell id="xF_-Twi31pI02IYK8cKR-18" value="Name" style="ellipse;whiteSpace=wrap;html=1;align=center;" parent="1" vertex="1">
          <mxGeometry x="780" y="300" width="100" height="40" as="geometry" />
        </mxCell>
        <mxCell id="xF_-Twi31pI02IYK8cKR-19" style="edgeStyle=none;rounded=0;orthogonalLoop=1;jettySize=auto;html=1;entryX=0.403;entryY=0.997;entryDx=0;entryDy=0;entryPerimeter=0;strokeColor=default;align=center;verticalAlign=middle;fontFamily=Helvetica;fontSize=11;fontColor=default;labelBackgroundColor=default;endArrow=none;endFill=0;" parent="1" source="xF_-Twi31pI02IYK8cKR-3" target="xF_-Twi31pI02IYK8cKR-18" edge="1">
          <mxGeometry relative="1" as="geometry" />
        </mxCell>
        <mxCell id="xF_-Twi31pI02IYK8cKR-21" value="Ph No" style="ellipse;whiteSpace=wrap;html=1;align=center;" parent="1" vertex="1">
          <mxGeometry x="870" y="354" width="100" height="40" as="geometry" />
        </mxCell>
        <mxCell id="xF_-Twi31pI02IYK8cKR-29" value="Movie Name" style="ellipse;whiteSpace=wrap;html=1;align=center;" parent="1" vertex="1">
          <mxGeometry x="-50" y="355" width="100" height="40" as="geometry" />
        </mxCell>
        <mxCell id="xF_-Twi31pI02IYK8cKR-30" value="&lt;u&gt;Movie ID&lt;/u&gt;" style="ellipse;whiteSpace=wrap;html=1;align=center;" parent="1" vertex="1">
          <mxGeometry x="-110" y="410" width="100" height="40" as="geometry" />
        </mxCell>
        <mxCell id="xF_-Twi31pI02IYK8cKR-32" value="Category" style="ellipse;whiteSpace=wrap;html=1;align=center;" parent="1" vertex="1">
          <mxGeometry x="-50" y="455" width="100" height="40" as="geometry" />
        </mxCell>
        <mxCell id="xF_-Twi31pI02IYK8cKR-35" value="Fav Category" style="ellipse;shape=doubleEllipse;margin=3;whiteSpace=wrap;html=1;align=center;fontFamily=Helvetica;fontSize=11;fontColor=default;labelBackgroundColor=default;strokeColor=#FF0000;" parent="1" vertex="1">
          <mxGeometry x="860" y="420" width="100" height="40" as="geometry" />
        </mxCell>
        <mxCell id="xF_-Twi31pI02IYK8cKR-38" style="edgeStyle=none;rounded=0;orthogonalLoop=1;jettySize=auto;html=1;strokeColor=default;align=center;verticalAlign=middle;fontFamily=Helvetica;fontSize=11;fontColor=default;labelBackgroundColor=default;endArrow=none;endFill=0;" parent="1" source="xF_-Twi31pI02IYK8cKR-3" target="xF_-Twi31pI02IYK8cKR-35" edge="1">
          <mxGeometry relative="1" as="geometry" />
        </mxCell>
        <mxCell id="xF_-Twi31pI02IYK8cKR-39" style="edgeStyle=none;rounded=0;orthogonalLoop=1;jettySize=auto;html=1;entryX=0.74;entryY=0.942;entryDx=0;entryDy=0;entryPerimeter=0;strokeColor=default;align=center;verticalAlign=middle;fontFamily=Helvetica;fontSize=11;fontColor=default;labelBackgroundColor=default;endArrow=none;endFill=0;" parent="1" source="xF_-Twi31pI02IYK8cKR-2" target="xF_-Twi31pI02IYK8cKR-29" edge="1">
          <mxGeometry relative="1" as="geometry" />
        </mxCell>
        <mxCell id="xF_-Twi31pI02IYK8cKR-58" style="edgeStyle=none;rounded=0;orthogonalLoop=1;jettySize=auto;html=1;entryX=0;entryY=0.5;entryDx=0;entryDy=0;strokeColor=default;align=center;verticalAlign=middle;fontFamily=Helvetica;fontSize=11;fontColor=default;labelBackgroundColor=default;endArrow=none;endFill=0;" parent="1" source="xF_-Twi31pI02IYK8cKR-42" target="xF_-Twi31pI02IYK8cKR-45" edge="1">
          <mxGeometry relative="1" as="geometry" />
        </mxCell>
        <mxCell id="6BEpY7dFE5jVvSf7-Emo-5" style="edgeStyle=none;rounded=0;orthogonalLoop=1;jettySize=auto;html=1;entryX=0;entryY=0.5;entryDx=0;entryDy=0;strokeColor=default;align=center;verticalAlign=middle;fontFamily=Helvetica;fontSize=11;fontColor=default;labelBackgroundColor=default;endArrow=none;endFill=0;" edge="1" parent="1" source="xF_-Twi31pI02IYK8cKR-42" target="6BEpY7dFE5jVvSf7-Emo-4">
          <mxGeometry relative="1" as="geometry" />
        </mxCell>
        <mxCell id="xF_-Twi31pI02IYK8cKR-42" value="Rented Movies" style="whiteSpace=wrap;html=1;align=center;" parent="1" vertex="1">
          <mxGeometry x="700" y="650" width="100" height="40" as="geometry" />
        </mxCell>
        <mxCell id="xF_-Twi31pI02IYK8cKR-43" value="Has" style="shape=rhombus;perimeter=rhombusPerimeter;whiteSpace=wrap;html=1;align=center;" parent="1" vertex="1">
          <mxGeometry x="690" y="540" width="120" height="60" as="geometry" />
        </mxCell>
        <mxCell id="xF_-Twi31pI02IYK8cKR-45" value="Expires" style="ellipse;whiteSpace=wrap;html=1;align=center;" parent="1" vertex="1">
          <mxGeometry x="840" y="610" width="100" height="40" as="geometry" />
        </mxCell>
        <mxCell id="xF_-Twi31pI02IYK8cKR-55" value="Format" style="ellipse;whiteSpace=wrap;html=1;align=center;" parent="1" vertex="1">
          <mxGeometry x="-30" y="525" width="100" height="40" as="geometry" />
        </mxCell>
        <mxCell id="xF_-Twi31pI02IYK8cKR-78" value="" style="endArrow=none;html=1;rounded=0;strokeColor=default;align=center;verticalAlign=middle;fontFamily=Helvetica;fontSize=11;fontColor=default;labelBackgroundColor=default;exitX=1;exitY=0.5;exitDx=0;exitDy=0;entryX=0;entryY=0.5;entryDx=0;entryDy=0;" parent="1" source="xF_-Twi31pI02IYK8cKR-2" target="xF_-Twi31pI02IYK8cKR-12" edge="1">
          <mxGeometry relative="1" as="geometry">
            <mxPoint x="80" y="410" as="sourcePoint" />
            <mxPoint x="240" y="410" as="targetPoint" />
          </mxGeometry>
        </mxCell>
        <mxCell id="xF_-Twi31pI02IYK8cKR-79" value="M" style="resizable=0;html=1;whiteSpace=wrap;align=right;verticalAlign=bottom;fontFamily=Helvetica;fontSize=11;fontColor=default;labelBackgroundColor=default;" parent="xF_-Twi31pI02IYK8cKR-78" connectable="0" vertex="1">
          <mxGeometry x="1" relative="1" as="geometry" />
        </mxCell>
        <mxCell id="xF_-Twi31pI02IYK8cKR-85" value="" style="endArrow=none;html=1;rounded=0;strokeColor=default;align=center;verticalAlign=middle;fontFamily=Helvetica;fontSize=11;fontColor=default;labelBackgroundColor=default;entryX=0.5;entryY=0;entryDx=0;entryDy=0;exitX=0.5;exitY=1;exitDx=0;exitDy=0;" parent="1" source="xF_-Twi31pI02IYK8cKR-43" target="xF_-Twi31pI02IYK8cKR-42" edge="1">
          <mxGeometry relative="1" as="geometry">
            <mxPoint x="690" y="510" as="sourcePoint" />
            <mxPoint x="850" y="510" as="targetPoint" />
          </mxGeometry>
        </mxCell>
        <mxCell id="xF_-Twi31pI02IYK8cKR-86" value="" style="resizable=0;html=1;whiteSpace=wrap;align=left;verticalAlign=bottom;fontFamily=Helvetica;fontSize=11;fontColor=default;labelBackgroundColor=default;" parent="xF_-Twi31pI02IYK8cKR-85" connectable="0" vertex="1">
          <mxGeometry x="-1" relative="1" as="geometry" />
        </mxCell>
        <mxCell id="xF_-Twi31pI02IYK8cKR-87" value="1" style="resizable=0;html=1;whiteSpace=wrap;align=right;verticalAlign=bottom;fontFamily=Helvetica;fontSize=11;fontColor=default;labelBackgroundColor=default;" parent="xF_-Twi31pI02IYK8cKR-85" connectable="0" vertex="1">
          <mxGeometry x="1" relative="1" as="geometry" />
        </mxCell>
        <mxCell id="xF_-Twi31pI02IYK8cKR-91" value="" style="endArrow=none;html=1;rounded=0;strokeColor=default;align=center;verticalAlign=middle;fontFamily=Helvetica;fontSize=11;fontColor=default;labelBackgroundColor=default;entryX=0.5;entryY=0;entryDx=0;entryDy=0;" parent="1" edge="1">
          <mxGeometry relative="1" as="geometry">
            <mxPoint x="750" y="820" as="sourcePoint" />
            <mxPoint x="750" y="880" as="targetPoint" />
          </mxGeometry>
        </mxCell>
        <mxCell id="xF_-Twi31pI02IYK8cKR-92" value="1" style="resizable=0;html=1;whiteSpace=wrap;align=right;verticalAlign=bottom;fontFamily=Helvetica;fontSize=11;fontColor=default;labelBackgroundColor=default;" parent="xF_-Twi31pI02IYK8cKR-91" connectable="0" vertex="1">
          <mxGeometry x="1" relative="1" as="geometry" />
        </mxCell>
        <mxCell id="xF_-Twi31pI02IYK8cKR-93" value="" style="endArrow=none;html=1;rounded=0;strokeColor=default;align=center;verticalAlign=middle;fontFamily=Helvetica;fontSize=11;fontColor=default;labelBackgroundColor=default;entryX=0.5;entryY=0;entryDx=0;entryDy=0;exitX=0.5;exitY=1;exitDx=0;exitDy=0;" parent="1" source="xF_-Twi31pI02IYK8cKR-42" edge="1">
          <mxGeometry relative="1" as="geometry">
            <mxPoint x="700" y="700" as="sourcePoint" />
            <mxPoint x="750" y="760" as="targetPoint" />
          </mxGeometry>
        </mxCell>
        <mxCell id="xF_-Twi31pI02IYK8cKR-94" value="M" style="resizable=0;html=1;whiteSpace=wrap;align=right;verticalAlign=bottom;fontFamily=Helvetica;fontSize=11;fontColor=default;labelBackgroundColor=default;" parent="xF_-Twi31pI02IYK8cKR-93" connectable="0" vertex="1">
          <mxGeometry x="1" relative="1" as="geometry" />
        </mxCell>
        <mxCell id="h5olAEMSu2brqqZlzXby-36" style="edgeStyle=none;rounded=0;orthogonalLoop=1;jettySize=auto;html=1;entryX=0;entryY=0.75;entryDx=0;entryDy=0;strokeColor=default;align=center;verticalAlign=middle;fontFamily=Helvetica;fontSize=11;fontColor=default;labelBackgroundColor=default;endArrow=none;endFill=0;" parent="1" source="xF_-Twi31pI02IYK8cKR-95" target="xF_-Twi31pI02IYK8cKR-42" edge="1">
          <mxGeometry relative="1" as="geometry" />
        </mxCell>
        <mxCell id="xF_-Twi31pI02IYK8cKR-95" value="Rented On" style="ellipse;whiteSpace=wrap;html=1;align=center;" parent="1" vertex="1">
          <mxGeometry x="580" y="690" width="100" height="40" as="geometry" />
        </mxCell>
        <mxCell id="xF_-Twi31pI02IYK8cKR-107" style="edgeStyle=none;rounded=0;orthogonalLoop=1;jettySize=auto;html=1;strokeColor=default;align=center;verticalAlign=middle;fontFamily=Helvetica;fontSize=11;fontColor=default;labelBackgroundColor=default;endArrow=none;endFill=0;" parent="1" source="xF_-Twi31pI02IYK8cKR-106" edge="1">
          <mxGeometry relative="1" as="geometry">
            <mxPoint x="773.3333333333335" y="920" as="targetPoint" />
          </mxGeometry>
        </mxCell>
        <mxCell id="xF_-Twi31pI02IYK8cKR-106" value="Name" style="ellipse;whiteSpace=wrap;html=1;align=center;" parent="1" vertex="1">
          <mxGeometry x="770" y="940" width="100" height="40" as="geometry" />
        </mxCell>
        <mxCell id="xF_-Twi31pI02IYK8cKR-109" style="edgeStyle=none;rounded=0;orthogonalLoop=1;jettySize=auto;html=1;entryX=0.292;entryY=1.016;entryDx=0;entryDy=0;strokeColor=default;align=center;verticalAlign=middle;fontFamily=Helvetica;fontSize=11;fontColor=default;labelBackgroundColor=default;endArrow=none;endFill=0;entryPerimeter=0;" parent="1" source="xF_-Twi31pI02IYK8cKR-108" edge="1">
          <mxGeometry relative="1" as="geometry">
            <mxPoint x="729.2000000000003" y="920.6400000000001" as="targetPoint" />
          </mxGeometry>
        </mxCell>
        <mxCell id="xF_-Twi31pI02IYK8cKR-108" value="&lt;u&gt;Dependent ID&lt;/u&gt;" style="ellipse;whiteSpace=wrap;html=1;align=center;" parent="1" vertex="1">
          <mxGeometry x="620" y="940" width="100" height="40" as="geometry" />
        </mxCell>
        <mxCell id="xF_-Twi31pI02IYK8cKR-113" style="edgeStyle=none;rounded=0;orthogonalLoop=1;jettySize=auto;html=1;entryX=0;entryY=0.25;entryDx=0;entryDy=0;strokeColor=default;align=center;verticalAlign=middle;fontFamily=Helvetica;fontSize=11;fontColor=default;labelBackgroundColor=default;endArrow=none;endFill=0;" parent="1" source="xF_-Twi31pI02IYK8cKR-112" target="xF_-Twi31pI02IYK8cKR-42" edge="1">
          <mxGeometry relative="1" as="geometry" />
        </mxCell>
        <mxCell id="xF_-Twi31pI02IYK8cKR-112" value="&lt;u&gt;RentID&lt;/u&gt;" style="ellipse;whiteSpace=wrap;html=1;align=center;" parent="1" vertex="1">
          <mxGeometry x="570" y="610" width="100" height="40" as="geometry" />
        </mxCell>
        <mxCell id="h5olAEMSu2brqqZlzXby-24" style="edgeStyle=none;rounded=0;orthogonalLoop=1;jettySize=auto;html=1;entryX=0.604;entryY=0.97;entryDx=0;entryDy=0;entryPerimeter=0;strokeColor=default;align=center;verticalAlign=middle;fontFamily=Helvetica;fontSize=11;fontColor=default;labelBackgroundColor=default;endArrow=none;endFill=0;" parent="1" source="xF_-Twi31pI02IYK8cKR-43" target="xF_-Twi31pI02IYK8cKR-3" edge="1">
          <mxGeometry relative="1" as="geometry" />
        </mxCell>
        <mxCell id="6BEpY7dFE5jVvSf7-Emo-27" value="M" style="edgeLabel;html=1;align=center;verticalAlign=middle;resizable=0;points=[];fontSize=12;fontFamily=Helvetica;fontColor=default;labelBackgroundColor=default;" vertex="1" connectable="0" parent="h5olAEMSu2brqqZlzXby-24">
          <mxGeometry x="-0.6055" relative="1" as="geometry">
            <mxPoint as="offset" />
          </mxGeometry>
        </mxCell>
        <mxCell id="h5olAEMSu2brqqZlzXby-25" value="" style="group" parent="1" vertex="1" connectable="0">
          <mxGeometry x="550" y="400" width="68.57" height="48.00142857142857" as="geometry" />
        </mxCell>
        <mxCell id="h5olAEMSu2brqqZlzXby-26" value="" style="verticalLabelPosition=bottom;verticalAlign=top;html=1;shape=mxgraph.basic.acute_triangle;dx=0.5;" parent="h5olAEMSu2brqqZlzXby-25" vertex="1">
          <mxGeometry width="68.57" height="48" as="geometry" />
        </mxCell>
        <mxCell id="h5olAEMSu2brqqZlzXby-27" value="IsA" style="text;html=1;align=center;verticalAlign=middle;resizable=0;points=[];autosize=1;strokeColor=none;fillColor=none;" parent="h5olAEMSu2brqqZlzXby-25" vertex="1">
          <mxGeometry x="14.280999999999999" y="18.00142857142857" width="40" height="30" as="geometry" />
        </mxCell>
        <mxCell id="h5olAEMSu2brqqZlzXby-28" value="Gold Member" style="whiteSpace=wrap;html=1;align=center;" parent="1" vertex="1">
          <mxGeometry x="400" y="330" width="100" height="40" as="geometry" />
        </mxCell>
        <mxCell id="h5olAEMSu2brqqZlzXby-33" style="edgeStyle=none;rounded=0;orthogonalLoop=1;jettySize=auto;html=1;strokeColor=default;align=center;verticalAlign=middle;fontFamily=Helvetica;fontSize=11;fontColor=default;labelBackgroundColor=default;endArrow=none;endFill=0;exitX=0.319;exitY=-0.015;exitDx=0;exitDy=0;exitPerimeter=0;" parent="1" source="h5olAEMSu2brqqZlzXby-29" target="xF_-Twi31pI02IYK8cKR-12" edge="1">
          <mxGeometry relative="1" as="geometry" />
        </mxCell>
        <mxCell id="h5olAEMSu2brqqZlzXby-35" value="1" style="edgeLabel;html=1;align=center;verticalAlign=middle;resizable=0;points=[];fontFamily=Helvetica;fontSize=11;fontColor=default;labelBackgroundColor=default;" parent="h5olAEMSu2brqqZlzXby-33" vertex="1" connectable="0">
          <mxGeometry x="0.7505" y="3" relative="1" as="geometry">
            <mxPoint y="-2" as="offset" />
          </mxGeometry>
        </mxCell>
        <mxCell id="h5olAEMSu2brqqZlzXby-29" value="Bronze Member" style="whiteSpace=wrap;html=1;align=center;" parent="1" vertex="1">
          <mxGeometry x="400" y="490" width="100" height="40" as="geometry" />
        </mxCell>
        <mxCell id="h5olAEMSu2brqqZlzXby-30" style="edgeStyle=none;rounded=0;orthogonalLoop=1;jettySize=auto;html=1;entryX=0.621;entryY=1.012;entryDx=0;entryDy=0;strokeColor=default;align=center;verticalAlign=middle;fontFamily=Helvetica;fontSize=11;fontColor=default;labelBackgroundColor=default;endArrow=none;endFill=0;exitX=0;exitY=0;exitDx=17.1425;exitDy=24;exitPerimeter=0;entryPerimeter=0;" parent="1" source="h5olAEMSu2brqqZlzXby-26" target="h5olAEMSu2brqqZlzXby-28" edge="1">
          <mxGeometry relative="1" as="geometry" />
        </mxCell>
        <mxCell id="h5olAEMSu2brqqZlzXby-31" style="edgeStyle=none;rounded=0;orthogonalLoop=1;jettySize=auto;html=1;strokeColor=default;align=center;verticalAlign=middle;fontFamily=Helvetica;fontSize=11;fontColor=default;labelBackgroundColor=default;endArrow=none;endFill=0;entryX=0.586;entryY=0.013;entryDx=0;entryDy=0;entryPerimeter=0;exitX=0.251;exitY=0.992;exitDx=0;exitDy=0;exitPerimeter=0;" parent="1" source="h5olAEMSu2brqqZlzXby-26" target="h5olAEMSu2brqqZlzXby-29" edge="1">
          <mxGeometry relative="1" as="geometry">
            <mxPoint x="560" y="460" as="sourcePoint" />
          </mxGeometry>
        </mxCell>
        <mxCell id="h5olAEMSu2brqqZlzXby-32" style="edgeStyle=none;rounded=0;orthogonalLoop=1;jettySize=auto;html=1;entryX=0;entryY=0.5;entryDx=0;entryDy=0;strokeColor=default;align=center;verticalAlign=middle;fontFamily=Helvetica;fontSize=11;fontColor=default;labelBackgroundColor=default;endArrow=none;endFill=0;exitX=0;exitY=0;exitDx=51.427499999999995;exitDy=24;exitPerimeter=0;" parent="1" source="h5olAEMSu2brqqZlzXby-26" target="xF_-Twi31pI02IYK8cKR-3" edge="1">
          <mxGeometry relative="1" as="geometry">
            <mxPoint x="450" y="310" as="sourcePoint" />
          </mxGeometry>
        </mxCell>
        <mxCell id="h5olAEMSu2brqqZlzXby-37" value="Rented Price" style="ellipse;whiteSpace=wrap;html=1;align=center;" parent="1" vertex="1">
          <mxGeometry x="220" y="350" width="100" height="40" as="geometry" />
        </mxCell>
        <mxCell id="6BEpY7dFE5jVvSf7-Emo-4" value="IsExpired" style="ellipse;whiteSpace=wrap;html=1;align=center;" vertex="1" parent="1">
          <mxGeometry x="840" y="670" width="100" height="40" as="geometry" />
        </mxCell>
        <mxCell id="6BEpY7dFE5jVvSf7-Emo-6" value="Credit Card" style="ellipse;whiteSpace=wrap;html=1;align=center;" vertex="1" parent="1">
          <mxGeometry x="200" y="480" width="100" height="40" as="geometry" />
        </mxCell>
        <mxCell id="6BEpY7dFE5jVvSf7-Emo-10" value="Running Time" style="ellipse;whiteSpace=wrap;html=1;align=center;" vertex="1" parent="1">
          <mxGeometry x="40" y="315" width="100" height="40" as="geometry" />
        </mxCell>
        <mxCell id="6BEpY7dFE5jVvSf7-Emo-12" style="edgeStyle=none;rounded=0;orthogonalLoop=1;jettySize=auto;html=1;entryX=0.387;entryY=0.009;entryDx=0;entryDy=0;strokeColor=default;align=center;verticalAlign=middle;fontFamily=Helvetica;fontSize=11;fontColor=default;labelBackgroundColor=default;endArrow=none;endFill=0;entryPerimeter=0;" edge="1" parent="1" source="6BEpY7dFE5jVvSf7-Emo-10" target="xF_-Twi31pI02IYK8cKR-2">
          <mxGeometry relative="1" as="geometry" />
        </mxCell>
        <mxCell id="6BEpY7dFE5jVvSf7-Emo-16" value="Category" style="whiteSpace=wrap;html=1;align=center;fillColor=#60a917;fontColor=#ffffff;strokeColor=#2D7600;" vertex="1" parent="1">
          <mxGeometry x="410" y="120" width="100" height="40" as="geometry" />
        </mxCell>
        <mxCell id="6BEpY7dFE5jVvSf7-Emo-19" style="edgeStyle=none;rounded=0;orthogonalLoop=1;jettySize=auto;html=1;entryX=0;entryY=0.5;entryDx=0;entryDy=0;strokeColor=default;align=center;verticalAlign=middle;fontFamily=Helvetica;fontSize=11;fontColor=default;labelBackgroundColor=default;endArrow=none;endFill=0;" edge="1" parent="1" source="6BEpY7dFE5jVvSf7-Emo-17" target="6BEpY7dFE5jVvSf7-Emo-16">
          <mxGeometry relative="1" as="geometry" />
        </mxCell>
        <mxCell id="6BEpY7dFE5jVvSf7-Emo-24" value="M" style="edgeLabel;html=1;align=center;verticalAlign=middle;resizable=0;points=[];fontSize=12;fontFamily=Helvetica;fontColor=default;labelBackgroundColor=default;" vertex="1" connectable="0" parent="6BEpY7dFE5jVvSf7-Emo-19">
          <mxGeometry x="-0.623" y="-1" relative="1" as="geometry">
            <mxPoint x="-4" y="-2" as="offset" />
          </mxGeometry>
        </mxCell>
        <mxCell id="6BEpY7dFE5jVvSf7-Emo-17" value="Has" style="shape=rhombus;perimeter=rhombusPerimeter;whiteSpace=wrap;html=1;align=center;fillColor=#60a917;fontColor=#ffffff;strokeColor=#2D7600;" vertex="1" parent="1">
          <mxGeometry x="230" y="190" width="120" height="60" as="geometry" />
        </mxCell>
        <mxCell id="6BEpY7dFE5jVvSf7-Emo-22" style="edgeStyle=none;rounded=0;orthogonalLoop=1;jettySize=auto;html=1;entryX=1;entryY=0.5;entryDx=0;entryDy=0;strokeColor=default;align=center;verticalAlign=middle;fontFamily=Helvetica;fontSize=11;fontColor=default;labelBackgroundColor=default;endArrow=none;endFill=0;" edge="1" parent="1" source="6BEpY7dFE5jVvSf7-Emo-20" target="6BEpY7dFE5jVvSf7-Emo-16">
          <mxGeometry relative="1" as="geometry" />
        </mxCell>
        <mxCell id="6BEpY7dFE5jVvSf7-Emo-26" value="M" style="edgeLabel;html=1;align=center;verticalAlign=middle;resizable=0;points=[];fontSize=12;fontFamily=Helvetica;fontColor=default;labelBackgroundColor=default;" vertex="1" connectable="0" parent="6BEpY7dFE5jVvSf7-Emo-22">
          <mxGeometry x="-0.7533" y="1" relative="1" as="geometry">
            <mxPoint x="-1" as="offset" />
          </mxGeometry>
        </mxCell>
        <mxCell id="6BEpY7dFE5jVvSf7-Emo-20" value="Likes" style="shape=rhombus;perimeter=rhombusPerimeter;whiteSpace=wrap;html=1;align=center;fillColor=#60a917;fontColor=#ffffff;strokeColor=#2D7600;" vertex="1" parent="1">
          <mxGeometry x="610" y="200" width="120" height="60" as="geometry" />
        </mxCell>
        <mxCell id="6BEpY7dFE5jVvSf7-Emo-28" value="If user can like single category, then User has relationship towards the category entity" style="shape=note;size=20;whiteSpace=wrap;html=1;fontFamily=Helvetica;fontSize=11;fontColor=default;labelBackgroundColor=default;" vertex="1" parent="1">
          <mxGeometry x="620" y="50" width="100" height="100" as="geometry" />
        </mxCell>
        <mxCell id="6BEpY7dFE5jVvSf7-Emo-29" value="If user can like many categories, then multi-valued attribute" style="shape=note;size=20;whiteSpace=wrap;html=1;fontFamily=Helvetica;fontSize=11;fontColor=default;labelBackgroundColor=default;" vertex="1" parent="1">
          <mxGeometry x="990" y="410" width="100" height="100" as="geometry" />
        </mxCell>
        <mxCell id="6BEpY7dFE5jVvSf7-Emo-31" value="Dependent" style="shape=ext;margin=3;double=1;whiteSpace=wrap;html=1;align=center;fontFamily=Helvetica;fontSize=11;fontColor=default;labelBackgroundColor=default;" vertex="1" parent="1">
          <mxGeometry x="700" y="880" width="100" height="40" as="geometry" />
        </mxCell>
        <mxCell id="6BEpY7dFE5jVvSf7-Emo-32" value="Depends" style="shape=rhombus;double=1;perimeter=rhombusPerimeter;whiteSpace=wrap;html=1;align=center;fontFamily=Helvetica;fontSize=11;fontColor=default;labelBackgroundColor=default;" vertex="1" parent="1">
          <mxGeometry x="690" y="760" width="120" height="60" as="geometry" />
        </mxCell>
        <mxCell id="6BEpY7dFE5jVvSf7-Emo-33" value="Inspired from Subashini&#39;s codeshow case" style="shape=note;size=20;whiteSpace=wrap;html=1;fontFamily=Helvetica;fontSize=11;fontColor=default;labelBackgroundColor=default;" vertex="1" parent="1">
          <mxGeometry x="870" y="790" width="100" height="100" as="geometry" />
        </mxCell>
      </root>
    </mxGraphModel>
  </diagram>
</mxfile>
